<?xml version="1.0"?><svg width="793.7007874015749" height="1122.5196850393702" xmlns="http://www.w3.org/2000/svg">
 <title>Green and White Knife and Fork</title>

 <metadata id="metadata18081">image/svg+xmlPublic Domainclker.comMohamed Ibrahimmap symbolsmap symbols</metadata>
 <g>
  <title>Layer 1</title>
  <path fill="#ffffff" fill-rule="nonzero" id="path7146" d="m120.796677,231.819107c-35.469833,0 -64.371258,28.901413 -64.371258,64.436935l0,494.084106c0,35.469788 28.901424,64.371216 64.371258,64.371216l494.084061,0c35.469849,0 64.371277,-28.901428 64.371277,-64.371216l0,-494.084106c0,-35.535522 -28.901428,-64.436935 -64.371277,-64.436935l-494.084061,0z"/>
  <path fill="#007f00" fill-rule="nonzero" id="path7148" d="m629.880981,865.848022c42.825989,0 77.574036,-34.747009 77.574036,-77.507996l0,-494.084015c0,-42.893005 -34.748047,-77.574005 -77.574036,-77.574005l-494.08429,0c-42.826385,0 -77.50877,34.681 -77.50877,77.574005l0,494.084015c0,42.760986 34.682369,77.507996 77.50877,77.507996l494.08429,0z"/>
  <path fill="#ffffff" fill-rule="nonzero" id="path7150" d="m335.593994,443.06897c0,17.144043 -15.567017,35.405029 -35.733002,35.405029l0,289.14502c0,40.987976 -56.028992,40.987976 -56.028992,0l0,-289.14502c-19.705994,0 -36.849503,-15.174011 -36.849503,-37.96698l0,-159.08902c0,-13.859009 20.033493,-14.450012 20.033493,0.524994l0,117.643005l16.75,0l19.312012,0l-1.512024,0l0,-118.562012c0,-13.267975 18.787018,-13.793976 18.787018,0.525024l0,118.036987l35.798004,0l0,-118.562012c0,-13.070984 19.442993,-13.596985 19.442993,0.525024l0,161.519958z"/>
  <path fill="#ffffff" fill-rule="nonzero" id="path7152" d="m533.039001,320.464996l0,448.957001c0,40.200012 -56.029999,39.609009 -56.029999,0l0,-178.005981l-29.886017,0l0,-270.951019c0,-62.993011 85.916016,-62.993011 85.916016,0"/>
 </g>
</svg>